<?xml version="1.0" encoding="UTF-8"?>
<svg xmlns="http://www.w3.org/2000/svg" id="a" width="670" height="170" viewBox="0 0 670 170">
  <path d="m1,12.12h49.55c43.37,0,71.39,28.71,71.39,73.48s-28.02,73.48-71.39,73.48H1V12.12Zm48.55,124.73c30.91,0,47.36-19.84,47.36-51.25s-16.45-51.45-47.36-51.45h-23.63v102.69h23.63Z" fill="#29323d"></path>
  <path d="m194.62,158.38v-5.98c-3.59,3.59-14.36,7.88-26.32,7.88-21.83,0-39.78-12.96-39.78-34.7,0-20.14,17.95-34.2,41.38-34.2,9.57,0,20.34,3.39,24.63,6.48v-8.57c0-10.77-6.68-19.14-20.34-19.14-9.57,0-15.55,4.09-18.25,11.47h-23.03c3.09-18.25,19.84-31.8,41.68-31.8,26.82,0,42.57,14.86,42.57,38.98v69.69l-22.53-.1h0Zm0-37.09c-2.59-6.68-12.26-10.77-21.83-10.77-10.77,0-22.03,4.59-22.03,15.05s11.27,15.35,22.03,15.35c9.57,0,19.14-4.09,21.83-10.77v-8.87Z" fill="#29323d"></path>
  <path d="m241.08,71.94h-16.75v-19.84h16.75v-28.51h23.93v28.51h23.93v19.84h-23.93v55.04c0,8.57,4.79,12.46,12.66,12.46,4.79,0,10.27-1.89,13.66-4.29v21.83c-4.09,2.39-10.57,3.79-17.95,3.79-18.94,0-32.3-10.07-32.3-31.11v-57.73h0Z" fill="#29323d"></path>
  <path d="m366.31,158.38v-5.98c-3.59,3.59-14.36,7.88-26.32,7.88-21.83,0-39.78-12.96-39.78-34.7,0-20.14,17.95-34.2,41.38-34.2,9.57,0,20.34,3.39,24.63,6.48v-8.57c0-10.77-6.68-19.14-20.34-19.14-9.57,0-15.55,4.09-18.25,11.47h-23.03c3.09-18.25,19.84-31.8,41.68-31.8,26.82,0,42.57,14.86,42.57,38.98v69.69l-22.53-.1h0Zm0-37.09c-2.59-6.68-12.26-10.77-21.83-10.77-10.77,0-22.03,4.59-22.03,15.05s11.27,15.35,22.03,15.35c9.57,0,19.14-4.09,21.83-10.77v-8.87Z" fill="#29323d"></path>
  <path d="m468.5,160.57c-37.39,0-64.91-30.61-64.91-75.67s27.62-75.67,64.91-75.67,65.11,30.61,65.11,75.67-27.52,75.67-65.11,75.67Zm0-139.88c-31.11,0-52.44,26.32-52.44,64.21s21.34,64.21,52.44,64.21,52.64-26.32,52.64-64.21-21.24-64.21-52.64-64.21Z" fill="#29323d"></path>
  <path d="m553.25,122.49c5.98,17.75,21.54,27.02,41.68,27.02s36.59-10.77,36.59-29.41c0-12.96-6.68-22.03-25.42-27.32l-28.02-7.88c-20.64-5.78-33.8-15.05-33.8-35.89,0-24.93,21.04-39.78,46.46-39.78,28.71,0,45.96,15.05,51.75,36.89h-12.26c-5.38-15.55-18.05-25.92-39.38-25.92-19.14,0-34.7,10.07-34.7,28.02,0,15.55,10.07,21.04,28.02,26.12l24.63,7.18c24.23,6.68,34.7,18.64,34.7,38.09,0,25.82-21.04,40.98-48.55,40.98s-48.55-13.66-54.34-38.09h12.66Z" fill="#29323d"></path>
  <path d="m658.13,47.11c-5.88,0-10.87-4.59-10.87-10.97s4.89-10.97,10.87-10.97,10.87,4.59,10.87,10.97-4.89,10.97-10.87,10.97Zm0-20.24c-4.99,0-9.17,3.89-9.17,9.27s4.09,9.37,9.17,9.37,9.17-3.89,9.17-9.37-4.09-9.27-9.17-9.27Zm-1.99,10.47v4.39h-1.99v-11.47h4.69c2.39,0,3.99,1.3,3.99,3.49,0,1.89-1.1,3.09-2.79,3.39l3.19,4.59h-2.29l-2.99-4.39h-1.79Zm2.79-5.28h-2.79v3.49h2.79c1.3,0,1.99-.8,1.99-1.69s-.8-1.79-1.99-1.79h0Z" fill="#29323d"></path>
</svg>
